# xmcd CD database file
#
# Track frame offsets:
#	150
#	20966
#	45863
#	67583
#	89337
#	103800
#	123034
#	140743
#	153924
#	174658
#	189507
#	209234
#
# Disc length: 3023 seconds
#
# Revision: 0
# Processed by: cddbd v1.5.2PL0 Copyright (c) Steve Scherf et al.
# Submitted via: CDex 1.70beta2
#
DISCID=a40bcd0c
DTITLE=McHouston Baker - Take a Look inside
DYEAR=1971
DGENRE=Blues
TTITLE0=01 Take a Look inside
TTITLE1=02 Fresh garbage - Water woman (living under water is something wild)
TTITLE2=03 I'll be doggone
TTITLE3=04 Checking out my garden
TTITLE4=05 How come my dog don't bark
TTITLE5=06 Watch out baby
TTITLE6=07 Sen-sa-shun
TTITLE7=08 The animal in me
TTITLE8=09 Whoa! Back buck
TTITLE9=10 Walkin' and talkin' the blues
TTITLE10=11 Patato blues
TTITLE11=12 New York, New York
EXTD=YEAR: 1971
EXTT0=
EXTT1=
EXTT2=
EXTT3=
EXTT4=
EXTT5=
EXTT6=
EXTT7=
EXTT8=
EXTT9=
EXTT10=
EXTT11=
PLAYORDER=
